#N canvas 892 102 464 772 10;
#X obj 13 3 inlet;
#X obj 12 41 / 2;
#X obj 43 41 % 2;
#X floatatom 96 62 5 0 0 0 - - -;
#X floatatom 12 81 5 0 0 0 - - -;
#X obj 12 61 i;
#X obj 12 125 / 2;
#X obj 12 146 i;
#X obj 45 123 % 2;
#X floatatom 100 149 5 0 0 0 - - -;
#X floatatom 12 165 5 0 0 0 - - -;
#X obj 13 212 / 2;
#X obj 40 212 % 2;
#X floatatom 96 234 5 0 0 0 - - -;
#X obj 13 232 i;
#X floatatom 12 252 5 0 0 0 - - -;
#X obj 12 293 / 2;
#X obj 39 293 % 2;
#X floatatom 96 316 5 0 0 0 - - -;
#X obj 12 315 i;
#X floatatom 11 337 5 0 0 0 - - -;
#X obj 11 376 / 2;
#X obj 38 376 % 2;
#X floatatom 95 397 5 0 0 0 - - -;
#X obj 11 396 i;
#X floatatom 11 416 5 0 0 0 - - -;
#X obj 11 454 / 2;
#X obj 38 454 % 2;
#X floatatom 95 474 5 0 0 0 - - -;
#X text 94 23 bit;
#X text 95 43 1;
#X text 98 130 2;
#X text 95 217 3;
#X text 97 299 4;
#X text 93 381 5;
#X text 94 456 6;
#X obj 13 22 t f f;
#X obj 12 188 t f f;
#X obj 12 272 t f f;
#X obj 11 356 t f f;
#X obj 11 434 t f f;
#X obj 12 101 t f f;
#X obj 94 514 outlet;
#X obj 137 357 outlet;
#X obj 125 439 outlet;
#X obj 96 336 select 1;
#X obj 94 416 select 1;
#X obj 95 493 select 1;
#X obj 94 82 select 1;
#X obj 100 170 select 1;
#X obj 94 256 select 1;
#X obj 149 281 outlet;
#X obj 164 196 outlet;
#X obj 183 108 outlet;
#X connect 0 0 36 0;
#X connect 1 0 5 0;
#X connect 2 0 3 0;
#X connect 3 0 48 0;
#X connect 4 0 41 0;
#X connect 5 0 4 0;
#X connect 6 0 7 0;
#X connect 7 0 10 0;
#X connect 8 0 9 0;
#X connect 9 0 49 0;
#X connect 10 0 37 0;
#X connect 11 0 14 0;
#X connect 12 0 13 0;
#X connect 13 0 50 0;
#X connect 14 0 15 0;
#X connect 15 0 38 0;
#X connect 16 0 19 0;
#X connect 17 0 18 0;
#X connect 18 0 45 0;
#X connect 19 0 20 0;
#X connect 20 0 39 0;
#X connect 21 0 24 0;
#X connect 22 0 23 0;
#X connect 23 0 46 0;
#X connect 24 0 25 0;
#X connect 25 0 40 0;
#X connect 27 0 28 0;
#X connect 28 0 47 0;
#X connect 36 0 1 0;
#X connect 36 1 2 0;
#X connect 37 0 11 0;
#X connect 37 1 12 0;
#X connect 38 0 16 0;
#X connect 38 1 17 0;
#X connect 39 0 21 0;
#X connect 39 1 22 0;
#X connect 40 0 26 0;
#X connect 40 1 27 0;
#X connect 41 0 6 0;
#X connect 41 1 8 0;
#X connect 45 0 43 0;
#X connect 46 0 44 0;
#X connect 47 0 42 0;
#X connect 48 0 53 0;
#X connect 49 0 52 0;
#X connect 50 0 51 0;
