#N canvas 590 25 1204 841 10;
#X msg 72 -114 bang;
#N canvas 0 22 450 300 (subpatch) 0;
#X array sample1 29201 float 2;
#X coords 0 1 29201 -1 80 50 1;
#X restore -12 -136 graph;
#X obj -13 -173 soundfiler;
#X msg -206 -182 \; pd dsp \$1;
#X obj -206 -216 tgl 30 0 empty empty Audio:On/Off 33 26 0 10 -259648
-1 -1 1 1;
#X obj 72 -93 tabplay~ sample1;
#X msg 377 -116 bang;
#X obj 291 -172 soundfiler;
#X obj 377 -95 tabplay~ sample2;
#X msg 679 -113 bang;
#N canvas 0 22 450 300 (subpatch) 0;
#X array sample3 9220 float 2;
#X coords 0 1 9220 -1 80 50 1;
#X restore 593 -134 graph;
#X obj 594 -168 soundfiler;
#N canvas 0 22 450 300 (subpatch) 0;
#X array sample4 4593 float 2;
#X coords 0 1 4593 -1 80 50 1;
#X restore -12 130 graph;
#X obj -206 -148 notein;
#X obj -13 -217 spigot;
#X obj -207 111 spigot;
#X obj -13 -281 t b f;
#X obj -13 -239 f;
#X obj -207 48 t b f;
#X obj -207 89 f;
#X obj 291 -217 spigot;
#X obj 291 -280 t b f;
#X obj 291 -238 f;
#N canvas 0 22 450 300 (subpatch) 0;
#X array sample2 117251 float 2;
#X coords 0 1 117251 -1 80 50 1;
#X restore 292 -137 graph;
#X obj 324 -238 == 11;
#X obj -206 -42 s NOTENUMBER;
#X obj -123 -42 s VELOCITY;
#X obj -207 27 r NOTENUMBER;
#X obj -193 68 r VELOCITY;
#X obj 291 -301 r NOTENUMBER;
#X obj 306 -259 r VELOCITY;
#X obj -13 -302 r NOTENUMBER;
#X obj 2 -261 r VELOCITY;
#X text -209 -4 MIDINOTE=1 VELOCITY=0..127;
#X floatatom -207 -22 6 0 0 0 - - -;
#X obj -174 89 == 1;
#X floatatom -122 -22 6 0 0 0 - - -;
#X obj 594 -212 spigot;
#X obj 594 -277 t b f;
#X obj 594 -234 f;
#X obj 594 -299 r NOTENUMBER;
#X obj 609 -256 r VELOCITY;
#X obj 679 -92 tabplay~ sample3;
#X obj 627 -234 == 12;
#X text -207 10 bit 32 \, 16 \, 8 \, ...1;
#X obj -130 181 s SB32;
#X obj 72 -135 r SB32;
#X obj -176 181 s SB16;
#X obj 377 -137 r SB16;
#X obj -192 156 s SB8;
#X obj 679 -134 r SB8;
#X obj -154 156 s SB4;
#X obj 679 -71 s~ S8out;
#X obj 2 215 r~ S4out;
#X obj 377 -74 s~ S16out;
#X obj 72 -72 s~ S32out;
#X obj -194 214 r~ S32out;
#X obj -131 214 r~ S16out;
#X obj 20 -240 == 10;
#X msg 73 151 bang;
#X obj -13 97 soundfiler;
#X obj -13 53 spigot;
#X obj -13 -13 t b f;
#X obj -13 29 f;
#X obj -13 -34 r NOTENUMBER;
#X obj 20 29 == 13;
#X obj 73 130 r SB4;
#X obj 73 172 tabplay~ sample4;
#X obj 73 193 s~ S4out;
#X obj -114 156 s SB2;
#X obj -75 156 s SB1;
#X obj 2 7 r VELOCITY;
#X text 592 -316 LOAD SAMPLE: MIDINOTE=12 VELOCITY=0..n samples;
#X text -16 -51 LOAD SAMPLE: MIDINOTE=13 VELOCITY=0..n samples;
#X text 289 -317 LOAD SAMPLE: MIDINOTE=11 VELOCITY=0..n samples;
#X text 108 134 PLAY SAMPLE;
#X text 715 -130 PLAY SAMPLE;
#X floatatom 57 -172 6 0 0 0 - - -;
#X floatatom 664 -168 6 0 0 0 - - -;
#X floatatom 58 98 6 0 0 0 - - -;
#X floatatom 361 -172 6 0 0 0 - - -;
#X text -14 -318 SAMPLE: MIDINOTE=10 VELOCITY=0..n samples;
#X text 113 -130 Play sample;
#X text 662 -154 Sample;
#X text 54 112 Sample;
#X text 56 -158 Sample;
#X text 359 -157 Sample;
#X obj 717 -115 bng 20 250 50 0 empty empty empty 17 7 0 10 -262144
-1 -1;
#X obj 112 -115 bng 20 250 50 0 empty empty empty 17 7 0 10 -262144
-1 -1;
#X obj 110 150 bng 20 250 50 0 empty empty empty 17 7 0 10 -262144
-1 -1;
#X obj 412 -117 bng 20 250 50 0 empty empty empty 17 7 0 10 -262144
-1 -1;
#X msg 375 155 bang;
#N canvas 122 541 450 300 (subpatch) 0;
#X array sample5 4302 float 2;
#X coords 0 1 4302 -1 80 50 1;
#X restore 289 135 graph;
#X obj 290 100 soundfiler;
#N canvas 0 22 450 300 (subpatch) 0;
#X array sample6 6319 float 2;
#X coords 0 1 6319 -1 80 50 1;
#X restore 611 133 graph;
#X obj 290 56 spigot;
#X obj 290 -9 t b f;
#X obj 290 34 f;
#X obj 290 -31 r NOTENUMBER;
#X obj 305 12 r VELOCITY;
#X msg 696 154 bang;
#X obj 610 100 soundfiler;
#X obj 610 56 spigot;
#X obj 610 -10 t b f;
#X obj 610 32 f;
#X obj 610 -31 r NOTENUMBER;
#X obj 625 10 r VELOCITY;
#X text 731 137 PLAY SAMPLE;
#X text 411 138 PLAY SAMPLE;
#X floatatom 360 100 6 0 0 0 - - -;
#X floatatom 681 101 6 0 0 0 - - -;
#X text 358 114 Sample;
#X text 678 115 Sample;
#X obj 413 153 bng 20 250 50 0 empty empty empty 17 7 0 10 -262144
-1 -1;
#X obj 733 153 bng 20 250 50 0 empty empty empty 17 7 0 10 -262144
-1 -1;
#X obj 375 176 tabplay~ sample5;
#X obj 696 175 tabplay~ sample6;
#X obj 375 134 r SB2;
#X obj 696 133 r SB1;
#X obj 375 197 s~ S2out;
#X obj 696 196 s~ S1out;
#X obj -20 273 dac~;
#X obj 64 215 r~ S2out;
#X obj 135 213 r~ S1out;
#X obj 323 34 == 14;
#X obj 643 32 == 15;
#N canvas 0 0 450 300 cpu 0;
#X obj 124 253 outlet;
#X obj 118 168 cputime;
#X obj 118 28 loadbang;
#X obj 118 112 metro 1000;
#X msg 118 56 1;
#X floatatom 118 84 0 0 0 0 - - -;
#X obj 118 140 t b b;
#X obj 118 228 * 0.1;
#X obj 118 197 int;
#X text 163 84 <-- on/off;
#X connect 1 0 8 0;
#X connect 2 0 4 0;
#X connect 3 0 6 0;
#X connect 4 0 5 0;
#X connect 5 0 3 0;
#X connect 6 0 1 0;
#X connect 6 1 1 1;
#X connect 7 0 0 0;
#X connect 8 0 7 0;
#X restore -206 -309 pd cpu;
#X obj -206 -287 nbx 5 14 -1e+037 1e+037 0 0 empty empty empty 0 -6
0 10 -258699 -1 -1 1.5 256;
#X text 288 -48 LOAD SAMPLE: MIDINOTE=14 VELOCITY=0..n samples;
#X text 607 -48 LOAD SAMPLE: MIDINOTE=15 VELOCITY=0..n samples;
#X floatatom -149 -96 6 0 0 0 - - -;
#X floatatom -161 -70 6 0 0 0 - - -;
#X obj -159 -120 bng 20 250 50 0 empty empty empty 17 7 0 10 -262144
-1 -1;
#X floatatom -104 -95 6 0 0 0 - - -;
#X floatatom -110 -70 6 0 0 0 - - -;
#X obj -111 -119 bng 20 250 50 0 empty empty empty 17 7 0 10 -262144
-1 -1;
#X text -149 -138 manual data;
#X obj -143 -312 tgl 30 0 empty empty start 1 15 1 12 -90049 -1 -1
0 1;
#X obj -143 -271 metro 1000;
#X obj -115 -249 delay 500;
#X msg -13 -195 read -resize samples/1/\$1.wav sample1;
#X msg 291 -194 read -resize samples/2/\$1.wav sample2;
#X msg -13 74 read -resize samples/4/\$1.wav sample4;
#X msg 594 -191 read -resize samples/3/\$1.wav sample3;
#X msg 290 77 read -resize samples/5/\$1.wav sample5;
#X msg 610 77 read -resize samples/6/\$1.wav sample6;
#X obj -61 215 r~ S8out;
#X obj -207 133 dec2bin;
#X text 424 -136 comment;
#X msg -114 -228 3;
#X msg -143 -228 2;
#X obj 12 249 *~ 0.5;
#X obj -53 250 *~ 0.5;
#X connect 0 0 5 0;
#X connect 4 0 3 0;
#X connect 5 0 55 0;
#X connect 6 0 8 0;
#X connect 8 0 54 0;
#X connect 9 0 42 0;
#X connect 13 0 25 0;
#X connect 13 0 34 0;
#X connect 13 1 26 0;
#X connect 13 1 36 0;
#X connect 14 0 77 0;
#X connect 14 0 140 0;
#X connect 15 0 147 0;
#X connect 16 0 17 0;
#X connect 16 1 58 0;
#X connect 17 0 14 0;
#X connect 18 0 19 0;
#X connect 18 1 35 0;
#X connect 19 0 15 0;
#X connect 20 0 141 0;
#X connect 20 0 80 0;
#X connect 21 0 22 0;
#X connect 21 1 24 0;
#X connect 22 0 20 0;
#X connect 24 0 20 1;
#X connect 27 0 18 0;
#X connect 28 0 19 1;
#X connect 29 0 21 0;
#X connect 30 0 22 1;
#X connect 31 0 16 0;
#X connect 32 0 17 1;
#X connect 35 0 15 1;
#X connect 37 0 143 0;
#X connect 37 0 78 0;
#X connect 38 0 39 0;
#X connect 38 1 43 0;
#X connect 39 0 37 0;
#X connect 40 0 38 0;
#X connect 41 0 39 1;
#X connect 42 0 52 0;
#X connect 43 0 37 1;
#X connect 46 0 0 0;
#X connect 46 0 88 0;
#X connect 48 0 6 0;
#X connect 48 0 90 0;
#X connect 50 0 9 0;
#X connect 50 0 87 0;
#X connect 53 0 151 0;
#X connect 53 0 152 0;
#X connect 56 0 151 0;
#X connect 56 0 152 0;
#X connect 57 0 151 0;
#X connect 57 0 152 0;
#X connect 58 0 14 1;
#X connect 59 0 67 0;
#X connect 61 0 142 0;
#X connect 61 0 79 0;
#X connect 62 0 63 0;
#X connect 62 1 65 0;
#X connect 63 0 61 0;
#X connect 64 0 62 0;
#X connect 65 0 61 1;
#X connect 66 0 59 0;
#X connect 66 0 89 0;
#X connect 67 0 68 0;
#X connect 71 0 63 1;
#X connect 91 0 115 0;
#X connect 95 0 144 0;
#X connect 95 0 109 0;
#X connect 96 0 97 0;
#X connect 96 1 124 0;
#X connect 97 0 95 0;
#X connect 98 0 96 0;
#X connect 99 0 97 1;
#X connect 100 0 116 0;
#X connect 102 0 145 0;
#X connect 102 0 110 0;
#X connect 103 0 104 0;
#X connect 103 1 125 0;
#X connect 104 0 102 0;
#X connect 105 0 103 0;
#X connect 106 0 104 1;
#X connect 115 0 119 0;
#X connect 116 0 120 0;
#X connect 117 0 91 0;
#X connect 117 0 113 0;
#X connect 118 0 100 0;
#X connect 118 0 114 0;
#X connect 122 0 151 0;
#X connect 122 0 152 0;
#X connect 123 0 151 0;
#X connect 123 0 152 0;
#X connect 124 0 95 1;
#X connect 125 0 102 1;
#X connect 126 0 127 0;
#X connect 130 0 25 0;
#X connect 131 0 26 0;
#X connect 132 0 130 0;
#X connect 132 0 131 0;
#X connect 133 0 25 0;
#X connect 134 0 26 0;
#X connect 135 0 133 0;
#X connect 135 0 134 0;
#X connect 137 0 138 0;
#X connect 138 0 150 0;
#X connect 138 0 139 0;
#X connect 139 0 149 0;
#X connect 140 0 2 0;
#X connect 141 0 7 0;
#X connect 142 0 60 0;
#X connect 143 0 11 0;
#X connect 144 0 93 0;
#X connect 145 0 101 0;
#X connect 146 0 151 0;
#X connect 146 0 152 0;
#X connect 147 0 45 0;
#X connect 147 1 47 0;
#X connect 147 2 49 0;
#X connect 147 3 51 0;
#X connect 147 4 69 0;
#X connect 147 5 70 0;
#X connect 149 0 132 0;
#X connect 149 0 131 0;
#X connect 150 0 132 0;
#X connect 150 0 131 0;
#X connect 151 0 121 1;
#X connect 152 0 121 0;
